<?xml version="1.0" encoding="UTF-8" standalone="no"?><!DOCTYPE svg PUBLIC "-//W3C//DTD SVG 1.1//EN" "http://www.w3.org/Graphics/SVG/1.1/DTD/svg11.dtd"><svg width="100%" height="100%" viewBox="0 0 1283 608" version="1.1" xmlns="http://www.w3.org/2000/svg" xmlns:xlink="http://www.w3.org/1999/xlink" xml:space="preserve" xmlns:serif="http://www.serif.com/" style="fill-rule:evenodd;clip-rule:evenodd;stroke-linejoin:round;stroke-miterlimit:2;"><g><g><path d="M673.224,547.208l-202.178,-0c-28.407,0 -108.013,0.02 -136.326,0.02l-113.002,0c-12.966,0 -25.17,-4.108 -35.192,-11.224c-2.394,-1.699 -67.028,-51.844 -70.912,-54.602c-11.632,-8.259 -20.325,-20.57 -23.859,-35.212l-90.016,-371.092l-0.008,-0.032c-9.246,-38.238 19.744,-75.066 59.079,-75.066l943.295,0c14.071,0 27.339,4.649 38.065,12.726c2.004,1.509 66.746,51.465 70.912,54.602c9.756,7.346 17.41,17.527 21.654,29.624l0.004,0.011l130.664,372.741l0.018,0.053c1.557,4.459 9.613,24.541 11.87,30.705c3.137,8.569 4.85,17.823 4.85,27.473c0,44.153 -35.847,80 -80,80l-451.257,0c-37.509,0 -69.023,-25.87 -77.659,-60.726Z" style="fill:#041c1c;"/><path d="M1004.104,45.37l-98.48,0c-6.477,0 -12.258,4.053 -14.463,10.132l-69.256,189.986c-3.318,9.099 -14.165,12.973 -22.41,7.887c-0.139,-0.099 -0.298,-0.179 -0.437,-0.278c-11.384,-6.914 -11.543,-18.377 -0.596,-25.966c23.105,-16.032 38.005,-42.416 38.005,-77.441c-0.02,-66.693 -50.184,-104.321 -131.697,-104.321l-188.834,-0c-7.49,0 -13.907,5.404 -15.158,12.794l-31.449,183.291c-2.841,16.609 -26.482,17.225 -30.198,0.795l-41.76,-184.86c-1.589,-7.033 -7.828,-12.019 -15.019,-12.019l-98.003,0c-7.172,0 -13.39,4.947 -14.999,11.94l-43.25,187.821c-3.775,16.41 -27.357,15.715 -30.178,-0.874l-31.648,-186.072c-1.291,-7.39 -7.688,-12.814 -15.198,-12.814l-88.268,-0c-9.973,0 -17.324,9.337 -14.98,19.032l90.016,371.092c1.669,6.914 7.867,11.761 14.96,11.761l113.002,0c7.172,0 13.41,-4.967 14.999,-11.96l38.542,-168.133c3.655,-15.973 26.443,-15.933 30.039,0.06l37.727,167.994c1.569,7.033 7.828,12.019 15.019,12.019l454.532,0c6.636,0 12.536,-4.251 14.622,-10.569l14.682,-44.402c2.086,-6.298 7.986,-10.569 14.622,-10.569l120.274,0c6.636,0 12.536,4.251 14.622,10.569l14.682,44.402c2.086,6.298 7.986,10.569 14.622,10.569l76.726,0c8.861,0 15.079,-8.761 12.158,-17.125l-130.664,-372.741c-2.523,-7.192 -9.298,-12 -16.907,-12Zm-380.29,104.34c0,-8.503 6.894,-15.397 15.397,-15.397l41.045,0c27.357,0 42.177,11.96 42.177,35.899c0,23.939 -14.821,34.787 -42.177,34.787l-41.045,0c-8.503,0 -15.397,-6.894 -15.397,-15.397l0,-39.893Zm64.984,207.489l-49.588,0c-8.503,0 -15.397,-6.894 -15.397,-15.397l0,-42.177c0,-8.503 6.894,-15.397 15.397,-15.397l49.011,0c27.376,0 42.753,13.112 42.753,37.628c0,24.516 -14.244,35.343 -42.177,35.343Zm233.812,-81.196l21.575,-65.6c4.629,-14.086 24.535,-14.125 29.244,-0.06l21.873,65.6c3.318,9.973 -4.093,20.264 -14.602,20.264l-43.449,0c-10.49,0 -17.9,-10.251 -14.622,-20.205l-0.02,0Z" style="fill:#e5dbd7;fill-rule:nonzero;"/><g transform="matrix(116.658973,0,0,116.658973,1223.201375,569.966355)"></g><text x="719.818px" y="569.966px" style="font-family:'HelveticaNeue', 'Helvetica Neue';font-size:116.659px;fill:#ff4c24;">STUDIOS</text></g></g></svg>